<svg width="30" height="31" viewBox="0 0 30 31" fill="none" xmlns="http://www.w3.org/2000/svg">
<path d="M7.5 19.25V8H5.625V6.125H8.4375C8.68614 6.125 8.9246 6.22377 9.10041 6.39959C9.27623 6.5754 9.375 6.81386 9.375 7.0625V18.3125H21.0356L22.9106 10.8125H11.25V8.9375H24.1125C24.255 8.9375 24.3956 8.96999 24.5237 9.0325C24.6518 9.09501 24.7639 9.18589 24.8516 9.29824C24.9392 9.41058 25.0001 9.54144 25.0297 9.68085C25.0592 9.82027 25.0565 9.96458 25.0219 10.1028L22.6781 19.4778C22.6273 19.6805 22.5103 19.8605 22.3455 19.9891C22.1807 20.1177 21.9777 20.1875 21.7687 20.1875H8.4375C8.18886 20.1875 7.9504 20.0887 7.77459 19.9129C7.59877 19.7371 7.5 19.4986 7.5 19.25ZM9.375 25.8125C8.87772 25.8125 8.40081 25.615 8.04917 25.2633C7.69754 24.9117 7.5 24.4348 7.5 23.9375C7.5 23.4402 7.69754 22.9633 8.04917 22.6117C8.40081 22.26 8.87772 22.0625 9.375 22.0625C9.87228 22.0625 10.3492 22.26 10.7008 22.6117C11.0525 22.9633 11.25 23.4402 11.25 23.9375C11.25 24.4348 11.0525 24.9117 10.7008 25.2633C10.3492 25.615 9.87228 25.8125 9.375 25.8125ZM20.625 25.8125C20.1277 25.8125 19.6508 25.615 19.2992 25.2633C18.9475 24.9117 18.75 24.4348 18.75 23.9375C18.75 23.4402 18.9475 22.9633 19.2992 22.6117C19.6508 22.26 20.1277 22.0625 20.625 22.0625C21.1223 22.0625 21.5992 22.26 21.9508 22.6117C22.3025 22.9633 22.5 23.4402 22.5 23.9375C22.5 24.4348 22.3025 24.9117 21.9508 25.2633C21.5992 25.615 21.1223 25.8125 20.625 25.8125Z" fill="#FFA500"/>
</svg>
