<svg width="30" height="30" viewBox="0 0 30 30" fill="none" xmlns="http://www.w3.org/2000/svg">
<g clip-path="url(#clip0_512_15476)">
<path d="M22.9549 13.725C24.9074 15.6763 24.9074 18.8425 22.9549 20.795L15.8837 27.8663C15.3962 28.3538 14.6037 28.3538 14.1162 27.8663L7.04494 20.795C5.09244 18.8425 5.09244 15.6763 7.04494 13.7238C8.99744 11.7713 12.1637 11.7713 14.1162 13.7238L14.9987 14.6075L15.8837 13.7238C17.8362 11.7713 21.0024 11.7713 22.9549 13.7238V13.725ZM8.81244 15.49C7.83744 16.4663 7.83744 18.05 8.81244 19.0263L14.9999 25.2138L21.1874 19.0263C22.1624 18.05 22.1624 16.4663 21.1874 15.49C20.2112 14.515 18.6274 14.515 17.6499 15.4925L14.9974 18.14L12.3474 15.49C11.3724 14.515 9.78869 14.515 8.81244 15.49ZM14.9999 1.25C17.7624 1.25 19.9999 3.4875 19.9999 6.25C19.9999 9.0125 17.7624 11.25 14.9999 11.25C12.2374 11.25 9.99994 9.0125 9.99994 6.25C9.99994 3.4875 12.2374 1.25 14.9999 1.25ZM14.9999 3.75C13.6187 3.75 12.4999 4.86875 12.4999 6.25C12.4999 7.63125 13.6187 8.75 14.9999 8.75C16.3812 8.75 17.4999 7.63125 17.4999 6.25C17.4999 4.86875 16.3812 3.75 14.9999 3.75Z" fill="#FFA500"/>
</g>
<defs>
<clipPath id="clip0_512_15476">
<rect width="30" height="30" fill="white"/>
</clipPath>
</defs>
</svg>
