<svg width="30" height="31" viewBox="0 0 30 31" fill="none" xmlns="http://www.w3.org/2000/svg">
<path d="M23.4375 16.6644V23H24.375V24.875H5.625V23H6.5625V16.6644C5.98535 16.2791 5.51223 15.7574 5.18514 15.1454C4.85806 14.5334 4.68712 13.8502 4.6875 13.1562C4.6875 12.3809 4.8975 11.6337 5.28094 10.9972L7.82344 6.59375C7.90572 6.45124 8.02406 6.33289 8.16658 6.25061C8.30909 6.16832 8.47075 6.125 8.63531 6.125H21.3656C21.5302 6.125 21.6918 6.16832 21.8344 6.25061C21.9769 6.33289 22.0952 6.45124 22.1775 6.59375L24.7106 10.9831C25.2699 11.9121 25.4497 13.0208 25.2126 14.0789C24.9755 15.1369 24.3397 16.0629 23.4375 16.6644ZM21.5625 17.3488C20.9179 17.4211 20.2653 17.3436 19.6555 17.1225C19.0458 16.9013 18.4953 16.5424 18.0469 16.0738C17.6533 16.4854 17.1804 16.813 16.6568 17.0368C16.1331 17.2606 15.5695 17.376 15 17.3759C14.4306 17.3762 13.8671 17.2611 13.3435 17.0377C12.8198 16.8142 12.3468 16.4869 11.9531 16.0756C11.5047 16.5442 10.9541 16.9029 10.3443 17.1239C9.73456 17.3448 9.08202 17.4221 8.4375 17.3497V23H21.5625V17.3488ZM9.17719 8L6.89625 11.9497C6.6746 12.4973 6.66795 13.1085 6.87762 13.6608C7.0873 14.2131 7.49782 14.6659 8.02705 14.9285C8.55627 15.1911 9.16514 15.2441 9.7318 15.077C10.2985 14.9099 10.7811 14.5349 11.0831 14.0272C11.3972 13.2425 12.5081 13.2425 12.8231 14.0272C12.9968 14.4626 13.2971 14.8359 13.6852 15.0988C14.0732 15.3618 14.5312 15.5024 15 15.5024C15.4688 15.5024 15.9268 15.3618 16.3148 15.0988C16.7029 14.8359 17.0032 14.4626 17.1769 14.0272C17.4909 13.2425 18.6019 13.2425 18.9169 14.0272C19.0385 14.3267 19.2208 14.5977 19.4523 14.8234C19.6838 15.049 19.9594 15.2243 20.2619 15.3383C20.5644 15.4523 20.8872 15.5024 21.2101 15.4856C21.5329 15.4688 21.8487 15.3855 22.1378 15.2407C22.4268 15.096 22.6828 14.893 22.8896 14.6446C23.0964 14.3961 23.2496 14.1076 23.3395 13.7971C23.4294 13.4866 23.4542 13.1609 23.4121 12.8404C23.3701 12.5199 23.2622 12.2115 23.0953 11.9347L20.8219 8H9.17719Z" fill="#6F6F6F"/>
<path d="M14.9815 9.55836C15.532 9.06406 16.3828 9.08046 16.9132 9.61179C17.4434 10.1434 17.4616 10.9899 16.9685 11.5421L14.981 13.5324L12.994 11.5421C12.5009 10.9899 12.5194 10.1419 13.0493 9.61179C13.5802 9.08117 14.4293 9.06336 14.9815 9.55836Z" fill="#6F6F6F"/>
</svg>
