<svg width="30" height="30" viewBox="0 0 30 30" fill="none" xmlns="http://www.w3.org/2000/svg">
<g clip-path="url(#clip0_512_15471)">
<path d="M15 2.5C21.9037 2.5 27.5 8.09625 27.5 15C27.5 21.9037 21.9037 27.5 15 27.5C8.09625 27.5 2.5 21.9037 2.5 15H5C5 20.5225 9.4775 25 15 25C20.5225 25 25 20.5225 25 15C25 9.4775 20.5225 5 15 5C11.5625 5 8.53 6.73375 6.73125 9.375H10V11.875H2.5V4.375H5V7.5C7.28 4.4625 10.9112 2.5 15 2.5ZM16.25 8.75V14.4812L20.3037 18.535L18.535 20.3037L13.75 15.5162V8.75H16.25Z" fill="#FFA500"/>
</g>
<defs>
<clipPath id="clip0_512_15471">
<rect width="30" height="30" fill="white"/>
</clipPath>
</defs>
</svg>
