<svg width="30" height="31" viewBox="0 0 30 31" fill="none" xmlns="http://www.w3.org/2000/svg">
<path d="M15.9375 22.0629H21.5625V13.6048L15 8.501L8.4375 13.6048V22.0629H14.0625V16.4379H15.9375V22.0629ZM23.4375 23.0004C23.4375 23.249 23.3387 23.4875 23.1629 23.6633C22.9871 23.8391 22.7486 23.9379 22.5 23.9379H7.5C7.25136 23.9379 7.0129 23.8391 6.83709 23.6633C6.66127 23.4875 6.5625 23.249 6.5625 23.0004V13.1473C6.5624 13.0044 6.59495 12.8634 6.65767 12.735C6.72039 12.6067 6.81161 12.4943 6.92438 12.4066L14.4244 6.5735C14.5889 6.44548 14.7915 6.37598 15 6.37598C15.2085 6.37598 15.4111 6.44548 15.5756 6.5735L23.0756 12.4066C23.1884 12.4943 23.2796 12.6067 23.3423 12.735C23.405 12.8634 23.4376 13.0044 23.4375 13.1473V23.0004Z" fill="#FFA500"/>
</svg>
