<svg width="30" height="30" viewBox="0 0 30 30" fill="none" xmlns="http://www.w3.org/2000/svg">
<g clip-path="url(#clip0_512_15491)">
<path d="M6.25 13.75H16.25V16.25H6.25V20L0 15L6.25 10V13.75ZM5 22.5H8.385C9.82836 23.7729 11.6084 24.6023 13.5114 24.8887C15.4145 25.175 17.3597 24.9062 19.1138 24.1144C20.8678 23.3226 22.3561 22.0415 23.4001 20.4248C24.4441 18.8081 24.9994 16.9245 24.9994 15C24.9994 13.0755 24.4441 11.1919 23.4001 9.57523C22.3561 7.95854 20.8678 6.67743 19.1138 5.88563C17.3597 5.09382 15.4145 4.82497 13.5114 5.11133C11.6084 5.39768 9.82836 6.22708 8.385 7.5H5C6.16333 5.94647 7.67292 4.68564 9.40884 3.81768C11.1448 2.94972 13.0592 2.49855 15 2.5C21.9038 2.5 27.5 8.09625 27.5 15C27.5 21.9038 21.9038 27.5 15 27.5C13.0592 27.5015 11.1448 27.0503 9.40884 26.1823C7.67292 25.3144 6.16333 24.0535 5 22.5Z" fill="#FFA500"/>
</g>
<defs>
<clipPath id="clip0_512_15491">
<rect width="30" height="30" fill="white"/>
</clipPath>
</defs>
</svg>
