<svg width="55" height="34" viewBox="0 0 55 34" fill="none" xmlns="http://www.w3.org/2000/svg">
<path d="M34.777 3.62109H19.9727V30.2523H34.777V3.62109Z" fill="#FF5F00"/>
<path d="M20.9127 16.9366C20.9103 14.3719 21.4909 11.8402 22.6105 9.53322C23.7301 7.22627 25.3593 5.20454 27.3748 3.62106C24.8789 1.65718 21.8813 0.435873 18.7248 0.0967298C15.5682 -0.242414 12.3801 0.314279 9.52465 1.7032C6.66923 3.09213 4.26178 5.25724 2.57748 7.95105C0.893183 10.6449 0 13.7587 0 16.9366C0 20.1146 0.893183 23.2284 2.57748 25.9222C4.26178 28.616 6.66923 30.7811 9.52465 32.1701C12.3801 33.559 15.5682 34.1157 18.7248 33.7765C21.8813 33.4374 24.8789 32.2161 27.3748 30.2522C25.3593 28.6687 23.7301 26.647 22.6105 24.34C21.491 22.0331 20.9104 19.5014 20.9127 16.9366Z" fill="#EB001B"/>
<path d="M54.749 16.9366C54.7491 20.1145 53.856 23.2283 52.1718 25.9222C50.4876 28.616 48.0802 30.7811 45.2249 32.17C42.3695 33.559 39.1814 34.1157 36.0249 33.7765C32.8684 33.4374 29.8709 32.2161 27.375 30.2522C29.3887 28.6671 31.0167 26.6451 32.1361 24.3385C33.2555 22.0319 33.8371 19.501 33.8371 16.9366C33.8371 14.3723 33.2555 11.8414 32.1361 9.53478C31.0167 7.22819 29.3887 5.20613 27.375 3.62106C29.8709 1.65717 32.8684 0.435865 36.0249 0.0967254C39.1814 -0.242414 42.3695 0.314303 45.2249 1.70324C48.0802 3.09218 50.4876 5.25729 52.1718 7.95111C53.856 10.6449 54.7491 13.7587 54.749 16.9366Z" fill="#F79E1B"/>
<path d="M52.9256 27.4318V26.8866H53.1453V26.7755H52.5859V26.8866H52.8057V27.4318H52.9256ZM54.0115 27.4318V26.7744H53.8401L53.6429 27.2266L53.4456 26.7744H53.2741V27.4318H53.3951V26.9359L53.5801 27.3634H53.7056L53.8906 26.9348V27.4318H54.0115Z" fill="#F79E1B"/>
</svg>
