<svg width="30" height="30" viewBox="0 0 30 30" fill="none" xmlns="http://www.w3.org/2000/svg">
<path d="M28.125 16.875C28.1269 15.9362 27.8938 15.0119 27.447 14.1863C27.0002 13.3607 26.3538 12.6601 25.5669 12.1482C24.7799 11.6364 23.8773 11.3297 22.9415 11.256C22.0056 11.1823 21.0662 11.344 20.2088 11.7264C19.3515 12.1088 18.6034 12.6997 18.0329 13.4452C17.4624 14.1907 17.0876 15.0672 16.9425 15.9947C16.7975 16.9222 16.8869 17.8712 17.2026 18.7553C17.5183 19.6394 18.0503 20.4304 18.75 21.0562V28.125L22.5 26.3503L26.25 28.125V21.0562C26.8394 20.5307 27.3111 19.8865 27.6342 19.1659C27.9573 18.4454 28.1246 17.6647 28.125 16.875ZM24.375 25.1625L22.5 24.2747L20.625 25.1625V22.1719C21.8367 22.6095 23.1633 22.6095 24.375 22.1719V25.1625ZM22.5 20.625C21.7583 20.625 21.0333 20.4051 20.4166 19.993C19.7999 19.581 19.3193 18.9953 19.0355 18.3101C18.7516 17.6248 18.6774 16.8708 18.8221 16.1434C18.9668 15.416 19.3239 14.7478 19.8484 14.2233C20.3728 13.6989 21.041 13.3417 21.7684 13.1971C22.4958 13.0524 23.2498 13.1266 23.9351 13.4105C24.6203 13.6943 25.206 14.1749 25.618 14.7916C26.0301 15.4083 26.25 16.1333 26.25 16.875C26.2488 17.8692 25.8533 18.8223 25.1503 19.5253C24.4473 20.2283 23.4942 20.6238 22.5 20.625ZM8.4375 13.125H15V15H8.4375V13.125ZM8.4375 7.5H17.8125V9.375H8.4375V7.5Z" fill="#FFA500"/>
<path d="M5.625 28.125C5.12787 28.1245 4.65125 27.9268 4.29972 27.5753C3.9482 27.2238 3.7505 26.7471 3.75 26.25V3.75C3.7505 3.25287 3.9482 2.77625 4.29972 2.42472C4.65125 2.0732 5.12787 1.8755 5.625 1.875H20.625C21.1221 1.8755 21.5988 2.0732 21.9503 2.42472C22.3018 2.77625 22.4995 3.25287 22.5 3.75V7.5H20.625V3.75H5.625V26.25H15V28.125H5.625Z" fill="#FFA500"/>
</svg>
