<svg width="30" height="31" viewBox="0 0 30 31" fill="none" xmlns="http://www.w3.org/2000/svg">
<path d="M7.5 24.875C7.5 22.8859 8.29018 20.9782 9.6967 19.5717C11.1032 18.1652 13.0109 17.375 15 17.375C16.9891 17.375 18.8968 18.1652 20.3033 19.5717C21.7098 20.9782 22.5 22.8859 22.5 24.875H20.625C20.625 23.3832 20.0324 21.9524 18.9775 20.8975C17.9226 19.8426 16.4918 19.25 15 19.25C13.5082 19.25 12.0774 19.8426 11.0225 20.8975C9.96763 21.9524 9.375 23.3832 9.375 24.875H7.5ZM15 16.4375C11.8922 16.4375 9.375 13.9203 9.375 10.8125C9.375 7.70469 11.8922 5.1875 15 5.1875C18.1078 5.1875 20.625 7.70469 20.625 10.8125C20.625 13.9203 18.1078 16.4375 15 16.4375ZM15 14.5625C17.0719 14.5625 18.75 12.8844 18.75 10.8125C18.75 8.74062 17.0719 7.0625 15 7.0625C12.9281 7.0625 11.25 8.74062 11.25 10.8125C11.25 12.8844 12.9281 14.5625 15 14.5625Z" fill="#FFA500"/>
</svg>
