<svg width="30" height="30" viewBox="0 0 30 30" fill="none" xmlns="http://www.w3.org/2000/svg">
<g clip-path="url(#clip0_512_15466)">
<path d="M15.0013 5.66122C17.9375 3.02497 22.475 3.11248 25.3038 5.94622C28.1313 8.78122 28.2288 13.2962 25.5988 16.2412L14.9988 26.8562L4.40126 16.2412C1.77126 13.2962 1.87001 8.77372 4.69626 5.94622C7.52751 3.11623 12.0563 3.02122 15.0013 5.66122ZM23.5338 7.71247C21.6588 5.83498 18.6338 5.75873 16.6713 7.52122L15.0025 9.01872L13.3325 7.52247C11.3638 5.75747 8.34501 5.83497 6.46501 7.71497C4.60251 9.57747 4.50876 12.5587 6.22501 14.5287L15 23.3175L23.775 14.53C25.4925 12.5587 25.3988 9.58122 23.5338 7.71247Z" fill="#FFA500"/>
</g>
<defs>
<clipPath id="clip0_512_15466">
<rect width="30" height="30" fill="white"/>
</clipPath>
</defs>
</svg>
